<!--?xml version="1.0" encoding="UTF-8" standalone="no"?-->
<!-- Created with Inkscape (http://www.inkscape.org/) -->

<svg xmlns:dc="http://purl.org/dc/elements/1.1/" xmlns:cc="http://creativecommons.org/ns#" xmlns:rdf="http://www.w3.org/1999/02/22-rdf-syntax-ns#" xmlns:svg="http://www.w3.org/2000/svg" xmlns="http://www.w3.org/2000/svg" xmlns:sodipodi="http://sodipodi.sourceforge.net/DTD/sodipodi-0.dtd" xmlns:inkscape="http://www.inkscape.org/namespaces/inkscape" width="210mm" height="297mm" viewBox="0 0 210 297" version="1.1" id="svg8" inkscape:version="0.92.3 (2405546, 2018-03-11)" sodipodi:docname="desenhando.svg" style="">
  <defs id="defs2"></defs>
  <sodipodi:namedview id="base" pagecolor="#ffffff" bordercolor="#666666" borderopacity="1.0" inkscape:pageopacity="0.0" inkscape:pageshadow="2" inkscape:zoom="0.24748737" inkscape:cx="-554.31838" inkscape:cy="793.60236" inkscape:document-units="mm" inkscape:current-layer="layer1" showgrid="false" inkscape:window-width="1366" inkscape:window-height="705" inkscape:window-x="-8" inkscape:window-y="-8" inkscape:window-maximized="1"></sodipodi:namedview>
  <metadata id="metadata5">
    <rdf:rdf>
      <cc:work rdf:about="">
        <dc:format>image/svg+xml</dc:format>
        <dc:type rdf:resource="http://purl.org/dc/dcmitype/StillImage"></dc:type>
        <dc:title></dc:title>
      </cc:work>
    </rdf:rdf>
  </metadata>
  <g inkscape:label="Camada 1" inkscape:groupmode="layer" id="layer1">
    <path style="fill:#ffffff;stroke:#000000;stroke-width:0.26458332" id="rect20" width="190.29591" height="257.64783" d="M10.690781 6.2107539 L200.98669099999998 6.2107539 L200.98669099999998 263.8585839 L10.690781 263.8585839 Z" class="XrxhNSRa_0"></path>
    <path sodipodi:type="spiral" style="fill:none;fill-rule:evenodd;stroke:#000000;stroke-width:0.26458332" id="path10" sodipodi:cx="101.29762" sodipodi:cy="81.553574" sodipodi:expansion="1" sodipodi:revolution="3" sodipodi:radius="72.728745" sodipodi:argument="-18.093561" sodipodi:t0="0" d="m 101.29762,81.553574 c 2.65316,2.501548 -2.06306,4.810579 -4.157735,4.409722 -5.676439,-1.086296 -6.795503,-8.28327 -4.661707,-12.725197 3.81686,-7.945565 14.299212,-9.171541 21.292652,-4.913693 10.26316,6.248563 11.61513,20.395734 5.16568,29.860117 -8.5961,12.614537 -26.520715,14.087317 -38.427574,5.417667 C 65.525369,92.692306 63.934656,70.942951 74.839288,56.60715 88.046258,39.244573 113.64466,37.537368 130.40178,50.685516 c 19.7477,15.494637 21.57065,44.95625 6.17362,64.129954 -17.77647,22.13681 -51.110297,24.07509 -72.697413,6.42561 C 39.349333,101.18661 37.295959,63.974502 57.200397,39.9762 79.530169,13.053733 120.62487,10.885413 147.03273,33.046626 c 29.31774,24.603146 31.60091,69.583594 7.18156,98.399794" class="XrxhNSRa_1"></path>
    <path style="fill:#ffffff;stroke:#000000;stroke-width:0.26458332" id="path12" transform="rotate(11.609166)" d="M104.39872700000001,166.53589A21.544643,33.261906 0,1,1 147.488013,166.53589A21.544643,33.261906 0,1,1 104.39872700000001,166.53589" class="XrxhNSRa_2"></path>
    <path style="fill:#ffffff;stroke:#000000;stroke-width:0.26458332" id="path14" transform="rotate(11.609166)" d="M114.982052,168.04779A10.205358,21.922617 0,1,1 135.392768,168.04779A10.205358,21.922617 0,1,1 114.982052,168.04779" class="XrxhNSRa_3"></path>
    <path style="fill:#ffffff;stroke:#000000;stroke-width:0.26458332" id="rect16" width="9.8273811" height="50.648811" transform="rotate(11.609166)" d="M164.11897 146.88113 L173.9463511 146.88113 L173.9463511 197.529941 L164.11897 197.529941 Z" class="XrxhNSRa_4"></path>
    <path style="fill:#ffffff;stroke:#000000;stroke-width:0.26458332" id="rect18" width="10.690781" height="8.0180855" transform="rotate(11.609166)" d="M163.56622 133.2751 L174.25700099999997 133.2751 L174.25700099999997 141.29318550000002 L163.56622 141.29318550000002 Z" class="XrxhNSRa_5"></path>
  </g>
<style data-made-with="vivus-instant">.XrxhNSRa_0{stroke-dasharray:896 898;stroke-dashoffset:897;animation:XrxhNSRa_draw 2000ms linear 0ms forwards;}.XrxhNSRa_1{stroke-dasharray:693 695;stroke-dashoffset:694;animation:XrxhNSRa_draw 2000ms linear 200ms forwards;}.XrxhNSRa_2{stroke-dasharray:175 177;stroke-dashoffset:176;animation:XrxhNSRa_draw 2000ms linear 400ms forwards;}.XrxhNSRa_3{stroke-dasharray:105 107;stroke-dashoffset:106;animation:XrxhNSRa_draw 2000ms linear 600ms forwards;}.XrxhNSRa_4{stroke-dasharray:121 123;stroke-dashoffset:122;animation:XrxhNSRa_draw 2000ms linear 800ms forwards;}.XrxhNSRa_5{stroke-dasharray:38 40;stroke-dashoffset:39;animation:XrxhNSRa_draw 2000ms linear 1000ms forwards;}@keyframes XrxhNSRa_draw{100%{stroke-dashoffset:0;}}@keyframes XrxhNSRa_fade{0%{stroke-opacity:1;}94.44444444444444%{stroke-opacity:1;}100%{stroke-opacity:0;}}</style></svg>
