<svg id="SVGRoot" xmlns="http://www.w3.org/2000/svg" viewBox="0 0 1044.12 160.32" style=""><defs><style>.cls-1,.cls-6{fill:#fc0;}.cls-1,.cls-2,.cls-3,.cls-4,.cls-5,.cls-6{stroke:#fc0;}.cls-1{stroke-width:0.8px;}.cls-2{stroke-width:1.7px;}.cls-3,.cls-4{fill:none;}.cls-3,.cls-4,.cls-5,.cls-6{stroke-linecap:round;}.cls-3,.cls-4,.cls-5{stroke-width:3.5px;}.cls-4,.cls-6{stroke-linejoin:round;}.cls-6{stroke-width:1.64px;}</style></defs><title>Marca(dourado)</title><g id="flowRoot34-7-26-5-2-6-5-19-1"><path id="path833" class="cls-1 xBMngQSV_0" d="M75.11,501l5.8-12.48h23.52l5.8,12.48h1.13L93.24,462.11H92.1L74,501ZM92.67,463.3l11.24,24.13H81.43Z" transform="translate(-73.27 -341.02)"></path><path id="path835" class="cls-1 xBMngQSV_1" d="M204.25,501h1.19l-9.17-15.9a11.47,11.47,0,0,0-.15-22.94H183V501h1v-15.9h11.08Zm2.28-27.35a10.49,10.49,0,0,1-10.41,10.46H184v-21h12.12A10.54,10.54,0,0,1,206.53,473.6Z" transform="translate(-73.27 -341.02)"></path><path id="path837" class="cls-1 xBMngQSV_2" d="M279.3,481.53A19.48,19.48,0,0,0,311.72,496l5,4.92h1.56l-5.75-5.7a19.43,19.43,0,1,0-33.2-13.72Zm20.1,2.12,11.65,11.65A18.54,18.54,0,0,1,298.72,500a18.37,18.37,0,1,1,13.11-5.38l-11.66-11.71Z" transform="translate(-73.27 -341.02)"></path><path id="path839" class="cls-1 xBMngQSV_3" d="M392.91,485.62a15.36,15.36,0,0,0,30.71,0V462.11h-1v23.56a14.32,14.32,0,0,1-28.63-.05V462.11h-1Z" transform="translate(-73.27 -341.02)"></path><path id="path841" class="cls-1 xBMngQSV_4" d="M500.41,501V462.11h-1V501Z" transform="translate(-73.27 -341.02)"></path><path id="path843" class="cls-1 xBMngQSV_5" d="M576.07,462.11v1h14.81V501h1V463.09h14.86v-1Z" transform="translate(-73.27 -341.02)"></path><path id="path845" class="cls-1 xBMngQSV_6" d="M680.66,501h24.18v-1h-23.2V481.58h21.6v-1h-21.6v-17.4h23.2v-1H680.66Z" transform="translate(-73.27 -341.02)"></path><path id="path847" class="cls-1 xBMngQSV_7" d="M776.85,462.11v1h14.81V501h1V463.09h14.87v-1Z" transform="translate(-73.27 -341.02)"></path><path id="path849" class="cls-1 xBMngQSV_8" d="M879.93,485.62a15.36,15.36,0,0,0,30.71,0V462.11h-1v23.56a14.32,14.32,0,0,1-28.64-.05V462.11h-1Z" transform="translate(-73.27 -341.02)"></path><path id="path851" class="cls-1 xBMngQSV_9" d="M1006.55,501h1.19l-9.17-15.9a11.47,11.47,0,0,0-.15-22.94H985.31V501h1v-15.9h11.08Zm2.27-27.35a10.48,10.48,0,0,1-10.4,10.46H986.3v-21h12.12A10.53,10.53,0,0,1,1008.82,473.6Z" transform="translate(-73.27 -341.02)"></path><path id="path853" class="cls-1 xBMngQSV_10" d="M1080.52,501l5.8-12.48h23.51l5.8,12.48h1.14l-18.13-38.84h-1.14L1079.38,501Zm17.55-37.65,11.24,24.13h-22.48Z" transform="translate(-73.27 -341.02)"></path></g><path id="path5269-0-0-0" class="cls-2 xBMngQSV_11" d="M73.27,407.62H401.78" transform="translate(-73.27 -341.02)"></path><path id="path5269-0-0-0-3" class="cls-2 xBMngQSV_12" d="M788.74,407.62h328.51" transform="translate(-73.27 -341.02)"></path><g id="g892"><path id="path3740" class="cls-3 xBMngQSV_13" d="M445.66,431.14c2-26.6,13.42-68.63,43.79-88.37" transform="translate(-73.27 -341.02)"></path><path id="path4572" class="cls-4 xBMngQSV_14" d="M479.49,350.66c30.11,26.12,30.84,64.92,32.55,80.48-6.71-15.38-29-40.24-74.17-37.48" transform="translate(-73.27 -341.02)"></path></g><g id="g888"><path id="path4589-3" class="cls-3 xBMngQSV_15" d="M551.71,368v62.77" transform="translate(-73.27 -341.02)"></path><path id="path855" class="cls-3 xBMngQSV_16" d="M551.76,373.91c23.5,3.52,37.74,24.25,37.46,57.23" transform="translate(-73.27 -341.02)"></path><path id="path859" class="cls-3 xBMngQSV_17" d="M540.12,396c43-26.86,76.66-2,76.44,35.11" transform="translate(-73.27 -341.02)"></path></g><path id="path861-6" class="cls-4 xBMngQSV_18" d="M693.57,441.42c19.42-16.27,56.75-41.11,58.25-48.82-8.79-6.86-24.16-12.41-40.93.62-15.08,13.21-15.21,22.76-3.32,29.43,18.07,8.51,30.27,10.47,45.3,1.16" transform="translate(-73.27 -341.02)"></path><g id="g883"><path id="path861" class="cls-4 xBMngQSV_19" d="M624.4,441.23c19.41-16.28,56.75-41.12,58.24-48.82-8.79-6.87-24.16-12.41-40.93.61-15.08,13.22-15.2,22.76-3.31,29.43,18.06,8.51,30.27,10.47,45.3,1.17" transform="translate(-73.27 -341.02)"></path><path id="path4589-5" class="cls-3 xBMngQSV_20" d="M680.57,356.53,665.72,375" transform="translate(-73.27 -341.02)"></path></g><path id="path4589" class="cls-5 xBMngQSV_21" d="M528.85,383.8v47.34" transform="translate(-73.27 -341.02)"></path><path id="path896" class="cls-6 xBMngQSV_22" d="M453.26,32.26A2.32,2.32 0,1,1 457.9,32.26A2.32,2.32 0,1,1 453.26,32.26"></path><style data-made-with="vivus-instant">.xBMngQSV_0{stroke-dasharray:216 218;stroke-dashoffset:217;animation:xBMngQSV_draw 1500ms ease-in-out 0ms forwards;}.xBMngQSV_1{stroke-dasharray:232 234;stroke-dashoffset:233;animation:xBMngQSV_draw 1500ms ease-in-out 0ms forwards;}.xBMngQSV_2{stroke-dasharray:287 289;stroke-dashoffset:288;animation:xBMngQSV_draw 1500ms ease-in-out 0ms forwards;}.xBMngQSV_3{stroke-dasharray:188 190;stroke-dashoffset:189;animation:xBMngQSV_draw 1500ms ease-in-out 0ms forwards;}.xBMngQSV_4{stroke-dasharray:80 82;stroke-dashoffset:81;animation:xBMngQSV_draw 1500ms ease-in-out 0ms forwards;}.xBMngQSV_5{stroke-dasharray:140 142;stroke-dashoffset:141;animation:xBMngQSV_draw 1500ms ease-in-out 0ms forwards;}.xBMngQSV_6{stroke-dasharray:216 218;stroke-dashoffset:217;animation:xBMngQSV_draw 1500ms ease-in-out 0ms forwards;}.xBMngQSV_7{stroke-dasharray:140 142;stroke-dashoffset:141;animation:xBMngQSV_draw 1500ms ease-in-out 0ms forwards;}.xBMngQSV_8{stroke-dasharray:189 191;stroke-dashoffset:190;animation:xBMngQSV_draw 1500ms ease-in-out 0ms forwards;}.xBMngQSV_9{stroke-dasharray:232 234;stroke-dashoffset:233;animation:xBMngQSV_draw 1500ms ease-in-out 0ms forwards;}.xBMngQSV_10{stroke-dasharray:216 218;stroke-dashoffset:217;animation:xBMngQSV_draw 1500ms ease-in-out 0ms forwards;}.xBMngQSV_11{stroke-dasharray:329 331;stroke-dashoffset:330;animation:xBMngQSV_draw 1500ms ease-in-out 0ms forwards;}.xBMngQSV_12{stroke-dasharray:329 331;stroke-dashoffset:330;animation:xBMngQSV_draw 1500ms ease-in-out 0ms forwards;}.xBMngQSV_13{stroke-dasharray:102 104;stroke-dashoffset:103;animation:xBMngQSV_draw 1500ms ease-in-out 0ms forwards;}.xBMngQSV_14{stroke-dasharray:178 180;stroke-dashoffset:179;animation:xBMngQSV_draw 1500ms ease-in-out 0ms forwards;}.xBMngQSV_15{stroke-dasharray:63 65;stroke-dashoffset:64;animation:xBMngQSV_draw 1500ms ease-in-out 0ms forwards;}.xBMngQSV_16{stroke-dasharray:76 78;stroke-dashoffset:77;animation:xBMngQSV_draw 1500ms ease-in-out 0ms forwards;}.xBMngQSV_17{stroke-dasharray:107 109;stroke-dashoffset:108;animation:xBMngQSV_draw 1500ms ease-in-out 0ms forwards;}.xBMngQSV_18{stroke-dasharray:206 208;stroke-dashoffset:207;animation:xBMngQSV_draw 1500ms ease-in-out 0ms forwards;}.xBMngQSV_19{stroke-dasharray:206 208;stroke-dashoffset:207;animation:xBMngQSV_draw 1500ms ease-in-out 0ms forwards;}.xBMngQSV_20{stroke-dasharray:24 26;stroke-dashoffset:25;animation:xBMngQSV_draw 1500ms ease-in-out 0ms forwards;}.xBMngQSV_21{stroke-dasharray:48 50;stroke-dashoffset:49;animation:xBMngQSV_draw 1500ms ease-in-out 0ms forwards;}.xBMngQSV_22{stroke-dasharray:15 17;stroke-dashoffset:16;animation:xBMngQSV_draw 1500ms ease-in-out 0ms forwards;}@keyframes xBMngQSV_draw{100%{stroke-dashoffset:0;}}@keyframes xBMngQSV_fade{0%{stroke-opacity:1;}92.98245614035088%{stroke-opacity:1;}100%{stroke-opacity:0;}}</style></svg>